<svg height="1024" viewBox="0 0 1024 1024" width="1024" xmlns="http://www.w3.org/2000/svg"><path d="m396.6 603.3c-5.2-4.6-13.4-6.9-24.6-6.9h-18.6v57.2h13.4c12.6 0 22-2.5 28.2-7.4 6.2-5 9.4-12.2 9.4-21.7 0-9.6-2.6-16.6-7.8-21.2z"/><path d="m966.9 482.6h-70.9v-146.6c0-44-25.5-105.5-56.6-136.6l-142.8-142.8c-31.1-31.1-92.6-56.6-136.6-56.6h-480c-44 0-80 36-80 80v864c0 44 36 80 80 80h736c44 0 80-36 80-80v-80.5h70.9c31.4 0 57.1-25.7 57.1-57.1v-266.7c0-31.4-25.7-57.1-57.1-57.1zm-326.8-390c4.4 3.1 8.2 6.2 11.3 9.3l142.8 142.8c3.1 3.1 6.2 6.9 9.3 11.3h-163.4zm191.9 851.4c0 8.7-7.3 16-16 16h-736c-8.7 0-16-7.3-16-16v-864c0-8.7 7.3-16 16-16h480c4.8 0 10.2.6 16 1.7v254.3h254.3c1.1 5.8 1.7 11.2 1.7 16v146.6h-601.8c-31.4 0-57.1 25.7-57.1 57.1v266.8c0 31.4 25.7 57.1 57.1 57.1h601.8zm-287.7-279v90.7h-36.5v-192.7h51.5l83.7 144.3h.9c-1.3-25-2-42.8-2-53.1v-91.2h36.8v192.7h-51.9l-83.8-145.8h-1.2c1.6 25.7 2.5 44.1 2.5 55.1zm-98.6-41.9c0 20.7-6.5 36.6-19.4 47.6-13 11-31.4 16.5-55.3 16.5h-17.5v68.6h-40.9v-192.8h61.6c23.4 0 41.2 5 53.3 15.1 12.1 10 18.2 25 18.2 45zm456.8 124.3c-12.4 4-24.1 6.9-35 8.5s-22.1 2.4-33.6 2.4c-29.1 0-51.3-8.5-66.6-25.6s-23-41.6-23-73.6c0-31.1 8.9-55.4 26.7-72.8s42.5-26.1 74-26.1c19.8 0 38.8 4 57.2 11.9l-13.6 32.7c-14.1-7-28.7-10.5-43.9-10.5-17.7 0-31.8 5.9-42.5 17.8-10.6 11.9-16 27.8-16 47.9 0 20.9 4.3 36.9 12.9 47.9s21 16.5 37.4 16.5c8.5 0 17.2-.9 26-2.6v-40.2h-36.5v-34h76.5z"/></svg>