<svg height="56" viewBox="0 0 56 56" width="56" xmlns="http://www.w3.org/2000/svg"><path d="m27.9883 52c1.2891 0 1.9453-.8672 3.2578-2.6484l13.9922-18.6797c.6328-.8672 1.0078-1.7344 1.0078-2.6719 0-.961-.375-1.8047-1.0078-2.6719l-13.9922-18.7031c-1.3125-1.7578-1.9687-2.625-3.2578-2.625-1.2656 0-1.9219.8672-3.2344 2.625l-13.9922 18.7031c-.6328.8672-1.0078 1.7109-1.0078 2.6719 0 .9375.375 1.8047 1.0078 2.6719l13.9922 18.6797c1.3125 1.7812 1.9688 2.6484 3.2344 2.6484zm0-4.9453c-.0938 0-.1641-.0703-.2109-.1875l-13.5704-18.2344c-.2109-.2578-.2343-.4453-.2343-.6328s.0234-.375.2343-.6328l13.5704-18.2578c.0468-.0938.1171-.1641.2109-.1641.1172 0 .1875.0703.2344.1641l13.5703 18.2578c.2109.2578.2344.4453.2344.6328s-.0235.375-.2344.6328l-13.5703 18.2344c-.0469.1172-.1172.1875-.2344.1875z"/></svg>